<svg width="757" height="164" viewBox="0 0 757 164" fill="none" xmlns="http://www.w3.org/2000/svg">
<g clip-path="url(#clip0_0_3)">
<path d="M355.863 58.8548C344.721 58.8548 335.686 49.8208 335.686 38.6775C335.686 34.2775 337.099 30.2097 339.489 26.894C328.079 18.5718 313.999 13.6667 298.698 13.6667C260.237 13.6667 229.663 44.626 229.663 83.0849C229.663 121.543 260.237 152.118 298.698 152.118C337.156 152.118 367.923 121.543 367.923 83.0849C367.923 74.0413 366.222 65.413 363.119 57.5044C360.867 58.3732 358.422 58.8548 355.863 58.8548ZM298.698 121.351C277.736 121.351 260.431 104.044 260.431 83.0858C260.431 61.9315 277.738 44.4341 298.698 44.4341C319.843 44.4341 337.15 61.9333 337.15 83.0858C337.15 104.045 319.843 121.353 298.689 121.353V121.351H298.698Z" fill="#ffb400"/>
<path d="M355.83 13.8246C342.022 13.8246 331.047 24.9382 331.047 38.7456C331.047 52.553 342.022 63.5288 355.83 63.5288C369.637 63.5288 380.683 52.553 380.683 38.7456C380.683 24.9382 369.637 13.8246 355.83 13.8246ZM355.818 57.0708C345.794 57.0708 337.516 48.7941 337.516 38.7691C337.516 28.6544 345.794 20.286 355.818 20.286C365.934 20.286 374.211 28.6544 374.211 38.7709C374.211 48.7941 365.934 57.0708 355.818 57.0708V57.0708Z" fill="#ffb400"/>
</g>
<path d="M0.773859 130.307C0.609859 131.373 1.34786 132.111 2.33186 132.111H12.0079C12.8279 132.111 13.4839 131.455 13.5659 130.799L17.1739 105.461H17.3379L31.1959 132.029C31.4419 132.521 32.0979 132.931 32.5899 132.931H34.0659C34.4759 132.931 35.2139 132.521 35.4599 132.029L49.2359 105.461H49.3999L53.0899 130.799C53.1719 131.455 53.9099 132.111 54.6479 132.111H64.3239C65.3079 132.111 66.0459 131.373 65.8819 130.307L56.6159 75.2031C56.5339 74.4651 55.7959 73.8911 55.1399 73.8911H53.8279C53.4179 73.8911 52.6799 74.2191 52.4339 74.7111L33.4099 110.135H33.2459L14.2219 74.7111C13.9759 74.2191 13.2379 73.8911 12.8279 73.8911H11.5159C10.8599 73.8911 10.1219 74.4651 10.0399 75.2031L0.773859 130.307Z" fill="#fffdd8"/>
<path d="M75.5521 110.135C75.5521 122.599 85.9661 132.931 98.8401 132.931C111.796 132.931 122.292 122.599 122.292 110.135V76.2691C122.292 75.4491 121.554 74.7111 120.734 74.7111H110.648C109.746 74.7111 109.09 75.4491 109.09 76.2691V109.479C109.09 115.219 104.744 119.811 98.8401 119.811C93.0181 119.811 88.7541 115.219 88.7541 109.479V76.2691C88.7541 75.4491 88.0981 74.7111 87.1961 74.7111H77.1101C76.2901 74.7111 75.5521 75.4491 75.5521 76.2691V110.135Z" fill="#fffdd8"/>
<path d="M131.37 103.493C131.37 119.893 144.49 132.849 160.808 132.849C172.698 132.849 181.144 127.519 181.144 127.519C181.472 127.273 181.8 126.617 181.8 126.207L181.718 104.149C181.718 103.329 181.062 102.591 180.242 102.591H163.76C162.858 102.591 162.202 103.247 162.202 104.149V112.267C162.202 113.087 162.858 113.743 163.76 113.743H168.926V118.499C166.466 119.483 164.006 119.811 161.628 119.811C152.69 119.811 145.392 112.431 145.392 103.493C145.392 94.4731 152.608 86.9291 161.546 86.9291C165.564 86.9291 169.172 87.9951 172.288 90.8651C172.944 91.3571 173.846 91.3571 174.502 90.7831L180.98 83.8951C181.636 83.2391 181.554 82.2551 180.816 81.6811C175.24 76.8431 167.696 73.9731 160.808 73.9731C144.49 73.9731 131.37 87.0931 131.37 103.493Z" fill="#fffdd8"/>
<path d="M400.697 132.029C400.943 132.521 401.435 132.931 402.091 132.931H402.911C403.567 132.931 404.059 132.521 404.305 132.029L430.053 76.8431C430.545 75.7771 429.889 74.7111 428.659 74.7111H417.753C417.097 74.7111 416.523 75.2031 416.359 75.6131L402.829 105.543H402.337L388.807 75.6131C388.643 75.2031 388.069 74.7111 387.413 74.7111H376.507C375.277 74.7111 374.621 75.7771 375.113 76.8431L400.697 132.029Z" fill="#fffdd8"/>
<path d="M436.786 130.553C436.786 131.373 437.442 132.111 438.344 132.111H472.292C473.194 132.111 473.85 131.373 473.85 130.553V121.615C473.85 120.795 473.194 120.057 472.292 120.057H449.578V108.987H468.274C469.094 108.987 469.832 108.331 469.832 107.429V98.4911C469.832 97.6711 469.094 96.9331 468.274 96.9331H449.578V86.7651H472.292C473.194 86.7651 473.85 86.0271 473.85 85.2071V76.2691C473.85 75.4491 473.194 74.7111 472.292 74.7111H438.344C437.442 74.7111 436.786 75.4491 436.786 76.2691V130.553Z" fill="#fffdd8"/>
<path d="M484.833 130.553C484.833 131.373 485.489 132.111 486.391 132.111H496.149C496.969 132.111 497.707 131.373 497.707 130.553V109.643H503.365L514.271 131.373C514.435 131.701 514.927 132.111 515.583 132.111H526.489C527.883 132.111 528.457 130.799 527.883 129.733L516.649 108.905C523.783 106.035 528.785 99.9671 528.785 92.4231C528.785 82.6651 520.749 74.7111 510.909 74.7111H486.391C485.489 74.7111 484.833 75.4491 484.833 76.2691V130.553ZM497.707 99.2291V86.4371H509.843C513.205 86.4371 516.075 89.2251 516.075 92.6691C516.075 96.1131 513.205 99.2291 509.843 99.2291H497.707Z" fill="#fffdd8"/>
<path d="M539.766 130.553C539.766 131.373 540.422 132.111 541.324 132.111H551C551.82 132.111 552.558 131.373 552.558 130.553V110.627H571.254C572.074 110.627 572.812 109.889 572.812 109.069V100.131C572.812 99.3111 572.074 98.5731 571.254 98.5731H552.558V86.7651H575.272C576.174 86.7651 576.83 86.0271 576.83 85.2071V76.2691C576.83 75.4491 576.174 74.7111 575.272 74.7111H541.324C540.422 74.7111 539.766 75.4491 539.766 76.2691V130.553Z" fill="#fffdd8"/>
<path d="M585.971 130.553C585.971 131.373 586.627 132.111 587.529 132.111H618.361C619.263 132.111 619.919 131.373 619.919 130.553V121.615C619.919 120.795 619.263 120.057 618.361 120.057H598.845V76.2691C598.845 75.4491 598.107 74.7111 597.287 74.7111H587.529C586.627 74.7111 585.971 75.4491 585.971 76.2691V130.553Z" fill="#fffdd8"/>
<path d="M623.35 103.493C623.35 119.893 636.388 132.931 652.788 132.931C669.188 132.931 682.308 119.893 682.308 103.493C682.308 87.0931 669.188 73.8911 652.788 73.8911C636.388 73.8911 623.35 87.0931 623.35 103.493ZM636.47 103.493C636.47 94.4731 643.85 87.0111 652.788 87.0111C661.808 87.0111 669.188 94.4731 669.188 103.493C669.188 112.431 661.808 119.811 652.788 119.811C643.85 119.811 636.47 112.431 636.47 103.493Z" fill="#fffdd8"/>
<path d="M702.249 131.783C702.413 132.439 703.069 132.931 703.725 132.931H705.037C705.611 132.931 706.185 132.521 706.431 132.029L721.355 98.4911H721.601L736.607 132.029C736.853 132.521 737.427 132.931 738.001 132.931H739.313C739.969 132.931 740.625 132.439 740.789 131.783L756.287 76.6791C756.615 75.5311 755.959 74.7111 754.811 74.7111H745.217C744.561 74.7111 743.905 75.2851 743.741 75.8591L736.689 103.657H736.361L723.651 74.7931C723.487 74.3011 722.995 73.8911 722.257 73.8911H720.781C720.125 73.8911 719.633 74.3011 719.387 74.7931L706.677 103.657H706.349L699.297 75.8591C699.133 75.2851 698.477 74.7111 697.821 74.7111H688.227C687.079 74.7111 686.423 75.5311 686.751 76.6791L702.249 131.783Z" fill="#fffdd8"/>
<defs>
<clipPath id="clip0_0_3">
<rect width="164" height="164" fill="white" transform="translate(215.997)"/>
</clipPath>
</defs>
</svg>
