<svg id="Calque_1" data-name="Calque 1" xmlns="http://www.w3.org/2000/svg" viewBox="0 0 470 420"><defs><style>.cls-1{fill:#008571;}</style></defs><title>mug-concept</title><path class="cls-1" d="M325,90H310V32.5a7.5,7.5,0,0,0-7.5-7.5h-70a7.5,7.5,0,0,0,0,15H295V97.5a7.5,7.5,0,0,0,7.5,7.5H325c71.68,0,130,58.32,130,130S396.68,365,325,365H302.5a7.5,7.5,0,0,0-7.5,7.5v35A22.52,22.52,0,0,1,272.5,430H37.5A22.52,22.52,0,0,1,15,407.5V40H202.5a7.5,7.5,0,0,0,0-15H7.5A7.5,7.5,0,0,0,0,32.5v375A37.54,37.54,0,0,0,37.5,445h235A37.54,37.54,0,0,0,310,407.5V380h15C405,380,470,315,470,235S405,90,325,90Z" transform="translate(0 -25)"/><path class="cls-1" d="M302.5,340H325a105,105,0,0,0,0-210H302.5a7.5,7.5,0,0,0-7.5,7.5v195A7.5,7.5,0,0,0,302.5,340ZM310,145h15a90,90,0,0,1,0,180H310Z" transform="translate(0 -25)"/><circle class="cls-1" cx="84.98" cy="365" r="7.5"/><circle class="cls-1" cx="54.98" cy="335" r="7.5"/></svg>
