<svg id="Capa_1" data-name="Capa 1" xmlns="http://www.w3.org/2000/svg" viewBox="0 0 489.55 490.13"><defs><style>.cls-1{fill:#008571;}</style></defs><title>printer-concept</title><polygon class="cls-1" points="489.55 375.69 405.46 375.69 405.46 360.41 474.26 360.41 474.26 152.38 15.29 152.38 15.29 360.41 91.72 360.41 91.72 375.69 0 375.69 0 137.09 489.55 137.09 489.55 375.69"/><path class="cls-1" d="M390.57,490.13H107.34V291.45H390.57Zm-267-16.27H374.3V307.72H123.61Z" transform="translate(-0.29)"/><polygon class="cls-1" points="390.28 122.67 374.01 122.67 374.01 16.27 124.83 16.27 124.83 122.67 108.55 122.67 108.55 0 390.28 0 390.28 122.67"/><rect class="cls-1" x="46.77" y="175.06" width="298" height="17"/><rect class="cls-1" x="46.77" y="222.06" width="22" height="17"/><rect class="cls-1" x="83.77" y="222.06" width="24" height="17"/><rect class="cls-1" x="122.77" y="222.06" width="22" height="17"/><rect class="cls-1" x="358.77" y="175.06" width="25" height="17"/><rect class="cls-1" x="144.77" y="428.06" width="170" height="15"/><rect class="cls-1" x="328.77" y="428.06" width="22" height="15"/><rect class="cls-1" x="144.77" y="337.06" width="93" height="14"/><rect class="cls-1" x="250.77" y="337.06" width="100" height="14"/><rect class="cls-1" x="182.77" y="384.06" width="168" height="15"/><rect class="cls-1" x="144.77" y="384.06" width="25" height="15"/></svg>