<svg id="Calque_1" data-name="Calque 1" xmlns="http://www.w3.org/2000/svg" viewBox="0 0 379.03 269.64"><defs><style>.cls-1{fill:#ebf1ec;}.cls-2{fill:#e03c31;}.cls-3{fill:#b42920;}.cls-4{fill:#ef5552;}.cls-5{fill:#422c18;}.cls-6{fill:#ce4e4a;}.cls-7{fill:#967b5d;}</style></defs><title>split mug</title><path class="cls-2" d="M259.34,310.65,85.89,321.53s-66.74-81-8.18-168.76l170.94-12.53Z" transform="translate(-8.42 -94.19)"/><path class="cls-3" d="M264.14,237.43" transform="translate(-8.42 -94.19)"/><ellipse class="cls-3" cx="254.07" cy="226.56" rx="23.8" ry="77.65" transform="translate(-22.11 -77.84) rotate(-3.59)"/><path class="cls-3" d="M209.34,124.05a76.77,76.77,0,0,1-1.32,19.3l-30.39,2.23a24.37,24.37,0,0,0,5.74-17.29c-.33-7.1-6.63-11.89-17.82-11.19-10.34.65-27,20.25-29,31.49l-28.34,2.08C113.84,127.48,142.68,95,167,94.23,188.64,93.58,207.92,101.47,209.34,124.05Z" transform="translate(-8.42 -94.19)"/><path class="cls-3" d="M259.59,310.64,86.14,321.52s-15.91-19.33-25.37-49.3l171.52-10.76C238.26,291.05,248.82,311.31,259.59,310.64Z" transform="translate(-8.42 -94.19)"/><path class="cls-4" d="M248.34,140.6v0L77.4,153.09c-16.63,24.9-23.15,49.26-24,71.39l174-10.91C226.87,173.55,235.54,142.31,248.34,140.6Z" transform="translate(-8.42 -94.19)"/><path class="cls-5" d="M256.37,304.5c-7.81-3.67-11.08-11.34-15.93-23.22-6.75-16.49-9.88-33.89-7.74-34.59,2.32-.75,4.85,20.13,20,27.31,15.81,7.48,36.27-4.2,40.06-6.37,9.51-5.43,7.82-7.84,29.13-24.58,9.09-7.14,14.92-11,23.21-13.2,4.9-1.28,15.44-4,21.85,1.82,2.49,2.28,5.47,6.88,4.09,10.47-2.32,6.07-14.8,3.32-17.75,10-1.51,3.43.21,7.7,1.82,10,4.69,6.73,12.87,3.25,18.66,9.56,4.71,5.12,5.49,14.12,2.28,16.84-2.39,2-5.57-.65-15.93-2.28-8.48-1.33-15.79-2.38-20.48,1.82-1.93,1.73-4.54,5.36-3.64,8.65.84,3.08,4.61,5.37,26.4,9.56,16.49,3.17,24.78,3.86,25,6.37,0,.41,0,2.23-7.28,5-26.59,10.13-49.16-5.28-63.72,6.82-3.2,2.66-1.69,3.05-5.47,6.83-20.26,20.27-66.34,11.6-69.18-.45-.78-3.32,1.58-7.46,4.1-9.56,5.71-4.77,20.7-6.1,22.3-7.29.65-.47,1.27-1,1.27-1s.48-.41.91-.82c1.48-1.41,2.35-2.23,2.37-2.73C272.82,307.81,263,307.6,256.37,304.5Z" transform="translate(-8.42 -94.19)"/><path class="cls-6" d="M280.37,223.94c-2.95-47-17.14-84.32-31.7-83.41s-24,39.74-21,86.72,17.14,84.31,31.7,83.4S283.32,270.91,280.37,223.94Zm-21.5,80c-13.12.82-25.93-33.21-28.61-76s5.77-78.16,18.88-79,25.93,33.21,28.62,76S272,303.15,258.87,304Z" transform="translate(-8.42 -94.19)"/><path class="cls-5" d="M298.73,278.41,285.38,273l-4.78.38-7.3,2.13-22.8,7.82L237.57,273l2.87,8.33,2.12,4.73-.15.05a25.43,25.43,0,0,0,2,4.12l1.75,3.89s4.14,6.62,5.71,7.13,1.19,3.21,16.4,6.58c9.95,2.2,10.55,0,9.77-1.71C300.9,303.64,298.73,278.41,298.73,278.41Z" transform="translate(-8.42 -94.19)"/><path class="cls-7" d="M243.05,268.25a29.63,29.63,0,0,0,14.11,9.56c1.45.45,11.36,3.41,21.39-.91,4.91-2.11,7.9-5.13,8.42-4.55s-2,4.54-5.68,7c-5.47,3.73-11.8,3.17-13.89,3C252.94,280.89,243,268.27,243.05,268.25Z" transform="translate(-8.42 -94.19)"/><path class="cls-7" d="M343.41,231.84c-.1-.64,5.64-2.75,12.06-2.28a15.81,15.81,0,0,1,6.83,1.82c3.22,1.85,5.43,5,5,5.46s-2.91-1.77-6.83-3.41C351.6,229.73,343.53,232.59,343.41,231.84Z" transform="translate(-8.42 -94.19)"/><path class="cls-7" d="M364.61,269.72c.38-.63,10.92,7.16,11.74,9.27a4,4,0,0,1,.26,1.46,3.69,3.69,0,0,1-.48,1.61c-.8,1.49-2.9,4.06-3.54,3.68s1.23-2.76,1.09-5.7C373.38,273.77,364.28,270.27,364.61,269.72Z" transform="translate(-8.42 -94.19)"/><path class="cls-7" d="M409.41,282.81" transform="translate(-8.42 -94.19)"/><path class="cls-7" d="M338,284.33c.65,1.23-6.51,4-6.67,9.41-.1,3.1,2.15,6.27,4.66,7.78,2.66,1.61,5.34,1.17,5.35,1.62s-4,2.13-7.59.91c-5.43-1.85-9.69-10.16-6.67-15.47C329.73,283.82,337.33,283.15,338,284.33Z" transform="translate(-8.42 -94.19)"/><path class="cls-7" d="M329.76,317.1a21.18,21.18,0,0,0-9.41,1.22,17.42,17.42,0,0,0-8.19,6.06c-2.14,3.09-1.52,4.85-4,7s-5.66,2.77-6.06,2.13,2.24-2.14,4.55-5.77c2.68-4.22,1.68-6.2,3.34-8.49C314.52,313,329.77,316.73,329.76,317.1Z" transform="translate(-8.42 -94.19)"/><path class="cls-7" d="M378.76,311c1.35-1.27,6.05.76,6,2.26,0,.78-1.37,1.42-3.6,2.48a25.35,25.35,0,0,1-2.54,1c-2.35.84-5.54,1.84-5.64,1.59s4.31-1.15,5.32-4.18C378.82,312.61,378.07,311.65,378.76,311Z" transform="translate(-8.42 -94.19)"/><path class="cls-5" d="M315.45,243.31s-2.14-9.66,2-14.26,9.28,1.27,9.28,1.27S317.8,235.14,315.45,243.31Z" transform="translate(-8.42 -94.19)"/><path class="cls-7" d="M316.05,239.4c-.36-.15,0-3.32,1.83-6a6.85,6.85,0,0,1,2.69-2.44c1.79-.85,4-.87,4.17-.53s-1.68.73-3.54,1.95C317,235.15,316.49,239.57,316.05,239.4Z" transform="translate(-8.42 -94.19)"/></svg>
